<svg class="circle-airplane" width="112" height="92" viewBox="0 0 112 92" fill="none" xmlns="http://www.w3.org/2000/svg">
<g filter="url(#filter0_d_14_33)">
<rect x="25.8413" y="25" width="61.1384" height="60" rx="30" fill="white"/>
</g>
<path d="M44.1828 63H68.6382V65.6667H44.1828V63ZM69.3298 50.3693C69.1465 49.8292 68.7521 49.3826 68.2334 49.1278C67.7146 48.873 67.114 48.8309 66.5636 49.0107L60.4864 51L49.6174 47L46.9001 48.3333L55.0519 53.6667L49.6174 56.3333L44.1828 53.6667L42.8242 55L48.2587 60.3333L68.0227 53.06C68.553 52.8646 68.9855 52.4751 69.2292 51.9734C69.4729 51.4716 69.509 50.8966 69.3298 50.3693V50.3693Z" fill="#2C2D5B"/>
<defs>
<filter id="filter0_d_14_33" x="0.841309" y="0" width="111.138" height="110" filterUnits="userSpaceOnUse" color-interpolation-filters="sRGB">
<feFlood flood-opacity="0" result="BackgroundImageFix"/>
<feColorMatrix in="SourceAlpha" type="matrix" values="0 0 0 0 0 0 0 0 0 0 0 0 0 0 0 0 0 0 127 0" result="hardAlpha"/>
<feOffset/>
<feGaussianBlur stdDeviation="12.5"/>
<feComposite in2="hardAlpha" operator="out"/>
<feColorMatrix type="matrix" values="0 0 0 0 0.592 0 0 0 0 0.592 0 0 0 0 0.592 0 0 0 0.25 0"/>
<feBlend mode="normal" in2="BackgroundImageFix" result="effect1_dropShadow_14_33"/>
<feBlend mode="normal" in="SourceGraphic" in2="effect1_dropShadow_14_33" result="shape"/>
</filter>
</defs>
</svg>
