<svg width="112" height="110" viewBox="0 0 112 110" fill="none" xmlns="http://www.w3.org/2000/svg">
<g filter="url(#filter0_d_14_29)">
<rect x="25.5195" y="25" width="61.1384" height="60" rx="30" fill="white"/>
</g>
<path d="M40.8042 49H54.0509L55.0698 51H41.8232L40.8042 49ZM42.1628 53H55.4095L56.4285 55H43.1818L42.1628 53ZM64.2406 63.6666C65.3682 63.6666 66.2785 62.7733 66.2785 61.6666C66.2785 60.56 65.3682 59.6666 64.2406 59.6666C63.1129 59.6666 62.2026 60.56 62.2026 61.6666C62.2026 62.7733 63.1129 63.6666 64.2406 63.6666ZM66.2785 51.6666H62.882V55H68.9414L66.2785 51.6666ZM50.6543 63.6666C51.7819 63.6666 52.6922 62.7733 52.6922 61.6666C52.6922 60.56 51.7819 59.6666 50.6543 59.6666C49.5266 59.6666 48.6163 60.56 48.6163 61.6666C48.6163 62.7733 49.5266 63.6666 50.6543 63.6666ZM66.9578 49.6666L71.0337 55V61.6666H68.3165C68.3165 63.88 66.4959 65.6666 64.2406 65.6666C61.9853 65.6666 60.1647 63.88 60.1647 61.6666H54.7302C54.7302 63.88 52.896 65.6666 50.6543 65.6666C48.3989 65.6666 46.5784 63.88 46.5784 61.6666H43.8611V57H46.5784V59H47.6109C48.3582 58.1866 49.4451 57.6666 50.6543 57.6666C51.8635 57.6666 52.9504 58.1866 53.6976 59H60.1647V47H43.8611C43.8611 45.52 45.0703 44.3333 46.5784 44.3333H62.882V49.6666H66.9578Z" fill="#2C2D5B"/>
<defs>
<filter id="filter0_d_14_29" x="0.519531" y="0" width="111.138" height="110" filterUnits="userSpaceOnUse" color-interpolation-filters="sRGB">
<feFlood flood-opacity="0" result="BackgroundImageFix"/>
<feColorMatrix in="SourceAlpha" type="matrix" values="0 0 0 0 0 0 0 0 0 0 0 0 0 0 0 0 0 0 127 0" result="hardAlpha"/>
<feOffset/>
<feGaussianBlur stdDeviation="12.5"/>
<feComposite in2="hardAlpha" operator="out"/>
<feColorMatrix type="matrix" values="0 0 0 0 0.592 0 0 0 0 0.592 0 0 0 0 0.592 0 0 0 0.25 0"/>
<feBlend mode="normal" in2="BackgroundImageFix" result="effect1_dropShadow_14_29"/>
<feBlend mode="normal" in="SourceGraphic" in2="effect1_dropShadow_14_29" result="shape"/>
</filter>
</defs>
</svg>
