<svg width="14" height="14" viewBox="0 0 14 14" fill="none" xmlns="http://www.w3.org/2000/svg">
<path fill-rule="evenodd" clip-rule="evenodd" d="M9.94591 3.31337H10.0825C11.8771 3.31337 13.3337 4.81337 13.3337 6.65337V10.3334C13.3337 12.1734 11.8771 13.6667 10.0825 13.6667H3.91819C2.12353 13.6667 0.666992 12.1734 0.666992 10.3334V6.65337C0.666992 4.81337 2.12353 3.31337 3.91819 3.31337H4.05474C4.06774 2.51337 4.37336 1.76671 4.92606 1.20671C5.48527 0.640041 6.20053 0.353374 7.00683 0.333374C8.61942 0.333374 9.9264 1.66671 9.94591 3.31337ZM5.60889 1.92004C5.24475 2.29337 5.04318 2.78671 5.03018 3.31337H8.97063C8.95112 2.22004 8.0798 1.33337 7.0069 1.33337C6.50622 1.33337 5.98603 1.54004 5.60889 1.92004ZM9.47132 5.88004C9.74442 5.88004 9.95899 5.65337 9.95899 5.38004V4.60671C9.95899 4.33337 9.74442 4.10671 9.47132 4.10671C9.20472 4.10671 8.98363 4.33337 8.98363 4.60671V5.38004C8.98363 5.65337 9.20472 5.88004 9.47132 5.88004ZM4.95864 5.38004C4.95864 5.65337 4.74406 5.88004 4.47096 5.88004C4.20437 5.88004 3.98328 5.65337 3.98328 5.38004V4.60671C3.98328 4.33337 4.20437 4.10671 4.47096 4.10671C4.74406 4.10671 4.95864 4.33337 4.95864 4.60671V5.38004Z" fill="#9593A0"/>
</svg>
