<svg width="12" height="14" viewBox="0 0 12 14" fill="none" xmlns="http://www.w3.org/2000/svg">
<path fill-rule="evenodd" clip-rule="evenodd" d="M0.333008 5.87855C0.333008 2.81197 2.8956 0.333374 5.99531 0.333374C9.10375 0.333374 11.6663 2.81197 11.6663 5.87855C11.6663 7.42383 11.1043 8.85846 10.1793 10.0744C9.15888 11.4157 7.90111 12.5844 6.48537 13.5017C6.16135 13.7137 5.86892 13.7297 5.51331 13.5017C4.0895 12.5844 2.83173 11.4157 1.82001 10.0744C0.89433 8.85846 0.333008 7.42383 0.333008 5.87855ZM4.12912 6.05121C4.12912 7.07851 4.96741 7.88649 5.99527 7.88649C7.0238 7.88649 7.87015 7.07851 7.87015 6.05121C7.87015 5.03191 7.0238 4.1846 5.99527 4.1846C4.96741 4.1846 4.12912 5.03191 4.12912 6.05121Z" fill="#2C2D5B"/>
</svg>
