<svg width="30" height="22" viewBox="0 0 30 22" fill="none" xmlns="http://www.w3.org/2000/svg">
<path d="M0 4.99998H13L14 6.99998H1L0 4.99998ZM1.33333 8.99998H14.3333L15.3333 11H2.33333L1.33333 8.99998ZM23 19.6666C24.1067 19.6666 25 18.7733 25 17.6666C25 16.56 24.1067 15.6666 23 15.6666C21.8933 15.6666 21 16.56 21 17.6666C21 18.7733 21.8933 19.6666 23 19.6666ZM25 7.66665H21.6667V11H27.6133L25 7.66665ZM9.66667 19.6666C10.7733 19.6666 11.6667 18.7733 11.6667 17.6666C11.6667 16.56 10.7733 15.6666 9.66667 15.6666C8.56 15.6666 7.66667 16.56 7.66667 17.6666C7.66667 18.7733 8.56 19.6666 9.66667 19.6666ZM25.6667 5.66665L29.6667 11V17.6666H27C27 19.88 25.2133 21.6666 23 21.6666C20.7867 21.6666 19 19.88 19 17.6666H13.6667C13.6667 19.88 11.8667 21.6666 9.66667 21.6666C7.45333 21.6666 5.66667 19.88 5.66667 17.6666H3V13H5.66667V15H6.68C7.41333 14.1866 8.48 13.6666 9.66667 13.6666C10.8533 13.6666 11.92 14.1866 12.6533 15H19V2.99998H3C3 1.51998 4.18667 0.333313 5.66667 0.333313H21.6667V5.66665H25.6667Z" fill="#2C2D5B"/>
</svg>
