<svg width="23" height="19" viewBox="0 0 23 19" fill="none" xmlns="http://www.w3.org/2000/svg">
<path fill-rule="evenodd" clip-rule="evenodd" d="M4.78945 0.949951H11.3924C14.1535 0.949951 16.0813 2.85265 16.0813 5.57939V13.4205C16.0813 16.1472 14.1535 18.0499 11.3924 18.0499H4.78945C2.02835 18.0499 0.100586 16.1472 0.100586 13.4205V5.57939C0.100586 2.85265 2.02835 0.949951 4.78945 0.949951ZM20.5727 3.66199C21.0731 3.40737 21.6602 3.43399 22.1379 3.73491C22.6156 4.03466 22.9006 4.55547 22.9006 5.1249V13.8757C22.9006 14.4463 22.6156 14.9659 22.1379 15.2657C21.8768 15.4289 21.585 15.5122 21.2909 15.5122C21.0458 15.5122 20.8007 15.4543 20.5715 15.3374L18.8832 14.4856C18.2584 14.1685 17.8708 13.532 17.8708 12.8248V6.17462C17.8708 5.46632 18.2584 4.82977 18.8832 4.51497L20.5727 3.66199Z" fill="#2C2D5B"/>
</svg>
